<?xml version="1.0" encoding="UTF-8" standalone="no"?>
<svg
   xmlns:dc="http://purl.org/dc/elements/1.1/"
   xmlns:cc="http://creativecommons.org/ns#"
   xmlns:rdf="http://www.w3.org/1999/02/22-rdf-syntax-ns#"
   xmlns:svg="http://www.w3.org/2000/svg"
   xmlns="http://www.w3.org/2000/svg"
   xmlns:sodipodi="http://sodipodi.sourceforge.net/DTD/sodipodi-0.dtd"
   xmlns:inkscape="http://www.inkscape.org/namespaces/inkscape"
   viewBox="0 0 511.99932 511"
   width="512px"
   height="512px"
   class=""
   version="1.1"
   id="svg3834"
   sodipodi:docname="icon.svg"
   inkscape:export-filename="/home/axel/IdeaProjects/imperial-to-metric-perso/icon128.png"
   inkscape:export-xdpi="24.000008"
   inkscape:export-ydpi="24.000008"
   inkscape:version="0.92.4 (33fec40, 2019-01-16)">
  <metadata
     id="metadata3840">
    <rdf:RDF>
      <cc:Work
         rdf:about="">
        <dc:format>image/svg+xml</dc:format>
        <dc:type
           rdf:resource="http://purl.org/dc/dcmitype/StillImage" />
        <dc:title></dc:title>
      </cc:Work>
    </rdf:RDF>
  </metadata>
  <defs
     id="defs3838" />
  <sodipodi:namedview
     pagecolor="#ffffff"
     bordercolor="#666666"
     borderopacity="1"
     objecttolerance="10"
     gridtolerance="10"
     guidetolerance="10"
     inkscape:pageopacity="0"
     inkscape:pageshadow="2"
     inkscape:window-width="1920"
     inkscape:window-height="1011"
     id="namedview3836"
     showgrid="false"
     inkscape:zoom="1.1269514"
     inkscape:cx="77.562175"
     inkscape:cy="223.81145"
     inkscape:window-x="1920"
     inkscape:window-y="32"
     inkscape:window-maximized="1"
     inkscape:current-layer="svg3834" />
  <g
     id="g3832"
     style="fill:#000000">
    <path
       d="m355.640625 234.929688c3.910156-3.902344 3.910156-10.242188 0-14.140626-3.902344-3.910156-10.230469-3.910156-14.140625 0-3.902344 3.898438-3.902344 10.238282 0 14.140626 3.910156 3.910156 10.238281 3.910156 14.140625 0zm0 0"
       data-original="#000000"
       class="active-path"
       data-old_color="#FF4F00"
       fill="#FF4700"
       id="path3822"
       style="fill:#000000" />
    <path
       d="m10 512.496094h492c4.042969 0 7.691406-2.433594 9.238281-6.171875s.691407-8.039063-2.167969-10.898438l-492-491.996093c-2.859374-2.863282-7.160156-3.714844-10.898437-2.167969-3.734375 1.546875-6.171875 5.191406-6.171875 9.238281v491.996094c0 5.523437 4.476562 10 10 10zm10-477.855469 80.4375 80.4375-21.21875 21.207031c-3.90625 3.90625-3.90625 10.238282 0 14.144532 3.898438 3.902343 10.234375 3.910156 14.140625 0l21.21875-21.210938 42.425781 42.429688-21.214844 21.207031c-3.90625 3.90625-3.90625 10.238281-.003906 14.144531 3.902344 3.902344 10.238282 3.910156 14.144532 0l21.21875-21.210938 42.421874 42.425782-21.210937 21.214844c-3.90625 3.902343-3.90625 10.234374 0 14.140624s10.234375 3.90625 14.140625 0l21.214844-21.214843 42.425781 42.429687-21.210937 21.214844c-3.90625 3.902344-3.90625 10.234375 0 14.140625s10.234374 3.90625 14.140624 0l21.214844-21.210937 42.425782 42.421874-21.210938 21.21875c-3.90625 3.90625-3.90625 10.238282 0 14.144532 3.90625 3.902344 10.238281 3.902344 14.144531-.003906l21.207031-21.214844 42.425782 42.425781-21.210938 21.21875c-3.902344 3.90625-3.902344 10.238281.003906 14.140625 3.902344 3.90625 10.238282 3.90625 14.144532 0l21.207031-21.21875 80.433594 80.433594h-457.855469zm0 0"
       data-original="#000000"
       class="active-path"
       data-old_color="#FF4F00"
       fill="#FF4700"
       id="path3824"
       style="fill:#000000" />
    <path
       d="m103.070312 208.417969c-2.859374-2.859375-7.160156-3.714844-10.898437-2.167969-3.734375 1.546875-6.171875 5.195312-6.171875 9.238281v201.007813c0 5.523437 4.476562 10 10 10h201.007812c4.046876 0 7.691407-2.433594 9.242188-6.171875 1.546875-3.734375.6875-8.039063-2.167969-10.898438zm2.929688 198.082031v-166.867188l166.867188 166.867188zm0 0"
       data-original="#000000"
       class="active-path"
       data-old_color="#FF4F00"
       fill="#FF4700"
       id="path3826"
       style="fill:#000000" />
    <path
       d="m313.21875 206.648438c3.90625 3.90625 10.234375 3.90625 14.144531 0 3.902344-3.902344 3.902344-10.234376 0-14.140626l-42.433593-42.429687c-3.902344-3.90625-10.234376-3.90625-14.140626 0-3.90625 3.902344-3.90625 10.234375 0 14.140625zm0 0"
       data-original="#000000"
       class="active-path"
       data-old_color="#FF4F00"
       fill="#FF4700"
       id="path3828"
       style="fill:#000000" />
    <path
       d="m151.796875 102.417969 280.703125 280.699219c11.71875 11.726562 30.703125 11.726562 42.429688 0l28.28125-28.277344c11.691406-11.691406 11.691406-30.726563 0-42.433594l-280.699219-280.699219c-1.097657-1.097656-2.4375-1.925781-3.910157-2.414062l-84.851562-28.28125c-3.589844-1.195313-7.554688-.261719-10.230469 2.417969-2.679687 2.675781-3.613281 6.636718-2.417969 10.230468l28.28125 84.851563c.492188 1.472656 1.316407 2.808593 2.414063 3.90625zm337.265625 224.128906c3.902344 3.902344 3.902344 10.253906.003906 14.148437l-28.277344 28.28125c-3.90625 3.90625-10.238281 3.910157-14.148437 0l-21.667969-21.667968 42.425782-42.429688zm-35.804688-35.808594-42.429687 42.429688-14.140625-14.144531 42.429688-42.421876zm-231.199218-231.199219 202.914062 202.914063-42.425781 42.429687-202.917969-202.917968zm-15.207032-13.082031-40.304687 40.300781-20.148437-60.449218zm0 0"
       data-original="#000000"
       class="active-path"
       data-old_color="#FF4F00"
       fill="#FF4700"
       id="path3830"
       style="fill:#000000" />
  </g>
  <path
     style="fill:#ff7f2a;stroke-width:1.25490201"
     d="M 20.025012,264.63066 V 36.559706 l 39.520753,39.505815 39.520752,39.505819 -10.592973,10.68279 c -11.833218,11.93355 -13.820059,15.52575 -11.797037,21.329 1.5797,4.53153 4.399525,6.29497 10.065956,6.29497 3.541084,0 5.814415,-1.67009 15.774047,-11.58831 l 11.6367,-11.58831 20.64706,20.61861 20.64706,20.61862 -11.04483,11.41692 c -11.62042,12.01191 -13.35166,15.50197 -10.75413,21.67966 1.72886,4.11175 3.93381,5.3134 9.74982,5.3134 3.30772,0 5.85061,-1.89051 15.59371,-11.59309 l 11.64149,-11.59308 20.99478,20.99477 20.99478,20.99479 -11.59309,11.64148 c -9.92265,9.96409 -11.59308,12.23764 -11.59308,15.77885 0,5.66644 1.76343,8.48626 6.29497,10.06596 5.80351,2.02311 9.39547,0.0361 21.3324,-11.80042 l 10.68619,-10.59637 20.66683,20.69534 20.66682,20.69533 -11.58831,11.63671 c -9.69824,9.73871 -11.58832,12.28131 -11.58832,15.5889 0,5.72592 1.09164,7.77332 5.30685,9.95308 5.81553,3.00734 9.28963,1.26386 21.66557,-10.87277 l 11.39368,-11.1734 20.61137,20.63982 20.61138,20.63981 -11.55913,11.78703 c -9.47746,9.66431 -11.55913,12.47696 -11.55913,15.61813 0,5.60084 1.11328,7.6634 5.30685,9.83197 5.87399,3.03757 9.46425,1.23592 21.69246,-10.88565 l 11.31301,-11.21436 20.63827,20.66672 20.63826,20.66675 -11.55913,11.78703 c -9.47746,9.66431 -11.55913,12.47696 -11.55913,15.61813 0,5.60084 1.11327,7.6634 5.30684,9.83197 5.87375,3.03744 9.46422,1.23595 21.68906,-10.88226 l 11.30962,-11.21098 39.50643,39.52138 39.50644,39.52137 H 248.09598 20.025012 Z M 304.31734,424.36651 c 2.18064,-2.18063 3.08022,-4.46147 3.08022,-7.80975 0,-4.59281 -2.92944,-7.66245 -101.33333,-106.18285 -55.73334,-55.79932 -102.85823,-102.2614 -104.722,-103.24907 -5.071819,-2.68772 -8.325556,-2.19617 -12.394141,1.87242 l -3.668175,3.66816 v 103.081 c 0,106.12975 0.0089,106.32812 4.910861,110.09177 1.527487,1.17277 26.329555,1.53801 106.518725,1.56863 l 104.52763,0.0399 z"
     id="path3842"
     inkscape:connector-curvature="0"
     transform="matrix(0.99999867,0,0,0.99999867,0,-0.49966)" />
  <path
     style="fill:#ffff00;stroke-width:1.25490201"
     d="M 281.04024,203.44235 180.03262,102.42888 201.05028,81.411218 222.06794,60.393557 323.09213,161.41775 l 101.02419,101.02419 -21.03423,21.00693 -21.03423,21.00694 z m 72.69894,33.93315 c 1.95268,-1.00977 3.9011,-2.75008 4.32984,-3.86735 4.13537,-10.7766 -7.05899,-20.05622 -15.85139,-13.1401 -6.06532,4.77099 -5.24355,13.77212 1.57209,17.21953 4.05781,2.05248 5.63529,2.01886 9.94946,-0.21208 z m -27.40934,-28.63535 c 3.29206,-2.52756 5.12443,-7.11135 4.31534,-10.7951 -0.50545,-2.30128 -8.70495,-11.37457 -24.31554,-26.90679 -22.13518,-22.02404 -23.83511,-23.43467 -28.24072,-23.43467 -6.10975,0 -10.84822,4.48161 -10.84822,10.26016 0,3.65133 2.646,6.74573 24.1926,28.29233 22.2279,22.22791 24.5464,24.18937 28.54902,24.1527 2.39603,-0.022 5.25242,-0.72784 6.34752,-1.56863 z"
     id="path3844"
     inkscape:connector-curvature="0"
     transform="matrix(0.99999867,0,0,0.99999867,0,-0.49966)" />
  <path
     style="fill:#ff80e5;stroke-width:1.25490201"
     d="m 449.82893,370.81514 c -1.38039,-0.77015 -7.45375,-6.2635 -13.49636,-12.20745 l -10.98656,-10.80719 20.38406,-20.41218 c 11.21123,-11.2267 20.96765,-20.41218 21.68093,-20.41218 1.70628,0 21.25898,19.8999 23.09359,23.50366 0.78337,1.53878 1.09115,4.12515 0.68397,5.74749 -1.00913,4.02071 -31.77352,34.42578 -35.71257,35.29545 -1.72549,0.38096 -4.26666,0.0625 -5.64706,-0.7076 z"
     id="path3846"
     inkscape:connector-curvature="0"
     transform="matrix(0.99999867,0,0,0.99999867,0,-0.49966)" />
  <path
     style="fill:#ffffff;stroke-width:1.25490201"
     d="m 156.97896,57.164222 c -5.05967,-15.231847 -8.9269,-27.966771 -8.59384,-28.299829 0.62981,-0.62981 49.93091,15.214266 54.07992,17.379864 2.08293,1.087194 0.15976,3.438161 -16.29803,19.923441 -10.2628,10.279936 -18.95866,18.690793 -19.32414,18.690793 -0.36548,0 -4.80424,-12.462421 -9.86391,-27.694269 z"
     id="path3848"
     inkscape:connector-curvature="0"
     transform="matrix(0.99999867,0,0,0.99999867,0,-0.49966)"
     inkscape:export-filename="/home/axel/IdeaProjects/imperial-to-metric-perso/icon96.png"
     inkscape:export-xdpi="164.53511"
     inkscape:export-ydpi="164.53511" />
</svg>
